<mxfile host="app.diagrams.net" modified="2023-05-22T06:57:18.940Z" agent="Mozilla/5.0 (Windows NT 10.0; Win64; x64) AppleWebKit/537.36 (KHTML, like Gecko) Chrome/112.0.0.0 Safari/537.36" version="21.3.2" etag="THM5LAvW4VFA8DSob5EE" type="github">
  <diagram name="第 1 页" id="qRA0CM69llQr6y3REjZW">
    <mxGraphModel>
      <root>
        <mxCell id="0" />
        <mxCell id="1" parent="0" />
      </root>
    </mxGraphModel>
  </diagram>
</mxfile>
